<svg xmlns="http://www.w3.org/2000/svg" viewBox="0 0 100 100" width="512" height="512">
  <defs>
    <linearGradient id="cGradMain" x1="0%" y1="0%" x2="100%" y2="100%">
      <stop offset="0%" stop-color="#1d4ed8"/>
      <stop offset="40%" stop-color="#2563eb"/>
      <stop offset="100%" stop-color="#60a5fa"/>
    </linearGradient>
    <linearGradient id="cGradShade" x1="100%" y1="100%" x2="0%" y2="0%">
      <stop offset="0%" stop-color="#0f172a"/>
      <stop offset="50%" stop-color="#1e3a8a"/>
      <stop offset="100%" stop-color="#2563eb"/>
    </linearGradient>
  </defs>
  <!-- Dark navy container matching the screenshot -->
  <rect width="100" height="100" rx="26" fill="#0b1329"/>
  
  <!-- Outer C Wave Loop -->
  <path d="M 66 26 C 52 14, 30 16, 20 32 C 10 48, 12 68, 26 80 C 42 92, 66 84, 68 70 C 69 64, 63 62, 59 66 C 48 76, 32 74, 26 63 C 18 50, 20 36, 33 27 C 43 20, 58 22, 63 31 C 66 35, 70 31, 66 26 Z" fill="url(#cGradMain)"/>
  
  <!-- Inner Dynamic Fluid Ribbon Layer -->
  <path d="M 66 26 C 56 18, 42 19, 32 27 C 22 35, 20 50, 28 62 C 34 71, 46 75, 59 66 C 63 63, 68 67, 65 72 C 50 85, 28 82, 18 68 C 12 58, 12 44, 22 32 C 32 18, 54 14, 66 26 Z" fill="url(#cGradShade)" opacity="0.85"/>
</svg>
